{"accessors" : [{"bufferView" : 0, "byteOffset" : 0, "componentType" : 5123, "count" : 70656, "type" : "SCALAR", "max" : [12316], "min" : [0]}, {"bufferView" : 1, "byteOffset" : 0, "componentType" : 5126, "count" : 12317, "type" : "VEC3", "max" : [19.51930046081543, 22.96109962463379, 19.30929946899414], "min" : [-19.51930046081543, -22.96109962463379, 0.07689999788999557], "name" : "POSITION"}, {"bufferView" : 1, "byteOffset" : 12, "componentType" : 5126, "count" : 12317, "type" : "VEC2", "max" : [0.9728000164031982, 0.984499990940094], "min" : [0.020899999886751175, 0.014800012111663818], "name" : "TEXCOORD_0"}, {"bufferView" : 1, "byteOffset" : 20, "componentType" : 5126, "count" : 12317, "type" : "VEC3", "max" : [1.0000041723251343, 0.9999673366546631, 1.0000044107437134], "min" : [-1.0000032186508179, -0.9999775886535645, -1.0000044107437134], "name" : "NORMAL"}], "asset" : {"generator" : "Aspose.3D 24.9.1", "version" : "2.0"}, "buffers" : [{"uri" : "data:application/octet-stream;base64,", "byteLength" : 535464}], "bufferViews" : [{"buffer" : 0, "byteOffset" : 0, "byteLength" : 141312, "target" : 34963}, {"buffer" : 0, "byteOffset" : 141316, "byteLength" : 394144, "byteStride" : 32, "target" : 34962}], "meshes" : [{"primitives" : [{"attributes" : {"POSITION" : 1, "TEXCOORD_0" : 2, "NORMAL" : 3}, "indices" : 0, "mode" : 4}], "name" : ""}], "nodes" : [{"mesh" : 0, "name" : "18456_Cowboy_Hat"}], "scene" : 0, "scenes" : [{"nodes" : [0]}]}